<svg width="669" height="634" viewBox="0 0 669 634" fill="none" xmlns="http://www.w3.org/2000/svg">
<path d="M316.125 0H361.417L554.875 482.208C564.943 508 573.594 528.135 580.833 542.604C588.068 557.078 595.615 568.245 603.479 576.104C611.339 583.969 620.297 589.313 630.354 592.146C640.422 594.979 653.01 597.344 668.125 599.229V633.208C660.568 633.208 647.823 633.047 629.896 632.729C611.964 632.406 593.563 631.938 574.688 631.313C555.813 630.688 538.823 630.219 523.729 629.896C508.63 629.578 500.135 629.417 498.25 629.417C493.844 629.417 485.042 629.578 471.833 629.896C458.625 630.219 444.151 630.688 428.417 631.313C412.693 631.938 397.438 632.406 382.646 632.729C367.865 633.047 357.021 633.208 350.104 633.208V599.229C380.922 597.344 401.677 593.099 412.375 586.5C423.068 579.891 428.417 569.979 428.417 556.771C428.417 547.328 423.698 529.708 414.271 503.917L390.667 440.688H182.125C170.167 469.635 161.51 491.813 156.167 507.229C150.818 522.635 148.146 536 148.146 547.333C148.146 564.323 154.125 576.906 166.083 585.083C178.042 593.25 198.172 597.969 226.479 599.229V633.208C190.615 631.943 163.719 631 145.792 630.375C127.859 629.74 115.125 629.417 107.583 629.417C100.651 629.417 89.1667 629.74 73.125 630.375C57.0833 631 32.7083 631.943 0 633.208V599.229C14.474 599.229 27.3698 596.406 38.6875 590.75C50.0052 585.083 60.0677 577.063 68.875 566.688C77.6927 556.302 85.875 544.031 93.4167 529.875C100.969 515.724 108.208 500.156 115.125 483.167L316.125 0ZM200.063 393.5H371.813L288.771 176.458L200.063 393.5Z" fill="black"/>
</svg>
