<svg width="552" height="625" viewBox="0 0 552 625" fill="none" xmlns="http://www.w3.org/2000/svg">
<path d="M0 0C13.2188 0 27.6927 0.3125 43.4167 0.9375C59.1354 1.5625 74.3854 2.03646 89.1667 2.35417C103.958 2.67708 117.802 2.99479 130.708 3.3125C143.609 3.61979 153.833 3.77083 161.375 3.77083C176.469 3.77083 197.547 3.61979 224.604 3.3125C251.656 2.99479 281.229 2.67708 313.313 2.35417C345.396 2.03646 378.422 1.5625 412.396 0.9375C446.365 0.3125 477.818 0 506.75 0L514.313 166.083H473.729C466.813 124.557 451.24 93.7292 427.021 73.6042C402.797 53.4688 365.208 43.3958 314.25 43.3958C302.292 43.3958 291.125 43.5573 280.75 43.875C270.375 44.1979 261.719 44.9792 254.792 46.2292C249.135 47.4948 244.896 48.599 242.063 49.5417C239.229 50.4896 237.177 52.5365 235.917 55.6875C234.667 58.8281 233.88 63.7031 233.563 70.3125C233.255 76.9115 233.104 85.8698 233.104 97.1875V282.146C257.005 282.146 276.979 280.417 293.021 276.958C309.063 273.5 321.958 267.682 331.708 259.5C341.458 251.323 348.693 240.786 353.417 227.896C358.135 214.995 361.125 199.104 362.375 180.229H400.125C398.859 221.76 397.917 253.375 397.292 275.083C396.667 296.781 396.354 308.573 396.354 310.458C396.354 314.24 396.505 320.375 396.813 328.875C397.13 337.365 397.443 347.115 397.75 358.125C398.068 369.125 398.542 380.766 399.167 393.042C399.802 405.307 400.125 416.786 400.125 427.479H362.375C357.969 406.719 352.938 389.729 347.271 376.521C341.615 363.313 334.068 352.932 324.625 345.375C315.193 337.823 303.24 332.635 288.771 329.813C274.297 326.979 255.74 325.563 233.104 325.563V446.354C233.104 471.51 233.729 489.906 234.979 501.542C236.24 513.182 238.13 522.469 240.646 529.396C246.938 547.01 257.469 560.063 272.25 568.563C287.042 577.052 310.167 581.292 341.625 581.292C368.667 581.292 391.625 579.094 410.5 574.688C429.375 570.286 445.417 562.74 458.625 552.042C471.844 541.349 482.698 527.036 491.188 509.104C499.688 491.177 507.073 468.995 513.354 442.563H551.104L544.5 624.708C525.625 624.708 501.089 624.547 470.896 624.229C440.698 623.906 408.146 623.589 373.229 623.271C338.313 622.964 302.609 622.5 266.125 621.875C229.635 621.24 195.667 620.917 164.208 620.917C162.318 620.917 153.979 621.078 139.188 621.396C124.406 621.719 107.74 622.188 89.1875 622.813C70.6302 623.438 52.6979 623.906 35.3958 624.229C18.0885 624.547 6.29167 624.708 0 624.708V590.729C18.25 590.729 33.0312 589.313 44.3542 586.479C55.6875 583.646 64.651 578.771 71.25 571.854C77.8594 564.938 82.4219 555.036 84.9375 542.146C87.4479 529.245 88.7083 512.724 88.7083 492.583V133.042C88.7083 112.292 87.4479 95.4688 84.9375 82.5625C82.4219 69.6615 77.8594 59.75 71.25 52.8333C64.651 45.9167 55.5313 41.0417 43.8958 38.2083C32.2552 35.375 17.625 33.9583 0 33.9583V0Z" fill="#BCAF8B"/>
</svg>
