<svg width="567" height="625" viewBox="0 0 567 625" fill="none" xmlns="http://www.w3.org/2000/svg">
<path d="M0 0C9.44271 0 20.6094 0.3125 33.5 0.9375C46.401 1.5625 59.7708 2.03646 73.6042 2.35417C87.4479 2.67708 100.979 2.99479 114.188 3.3125C127.396 3.61979 138.719 3.77083 148.167 3.77083C177.734 3.77083 206.833 3.14583 235.458 1.89583C264.083 0.635417 293.177 0 322.75 0V33.9583C304.5 34.599 289.552 36.1771 277.917 38.6875C266.276 41.2031 257.151 46.2396 250.542 53.7917C243.943 61.3333 239.385 71.7083 236.875 84.9167C234.359 98.125 233.104 115.745 233.104 137.771V437.854C233.104 456.104 233.417 471.521 234.042 484.104C234.667 496.677 235.922 507.208 237.813 515.708C239.698 524.198 242.063 531.432 244.896 537.417C247.729 543.391 251.026 548.578 254.792 552.979C262.969 562.427 274.135 569.51 288.292 574.229C302.458 578.938 321.802 581.292 346.333 581.292C375.276 581.292 399.813 578.781 419.938 573.75C440.073 568.708 456.901 560.688 470.417 549.688C483.943 538.677 494.948 524.521 503.438 507.229C511.938 489.927 519.333 469 525.625 444.458H566.208L559.604 624.708C547.021 624.708 529.401 624.547 506.75 624.229C484.109 623.906 459.422 623.75 432.688 623.75C405.948 623.75 378.109 623.438 349.167 622.813C320.219 622.188 293.167 621.875 268 621.875C242.844 621.875 220.51 621.719 201 621.396C181.5 621.078 167.979 620.917 160.438 620.917C155.396 620.917 145.948 621.078 132.104 621.396C118.271 621.719 103.021 622.188 86.3542 622.813C69.6875 623.438 53.3333 623.906 37.2917 624.229C21.25 624.547 8.81771 624.708 0 624.708V590.729C18.25 590.729 33.0312 589.313 44.3542 586.479C55.6875 583.646 64.651 578.615 71.25 571.375C77.8594 564.141 82.4219 554.078 84.9375 541.188C87.4479 528.286 88.7083 511.458 88.7083 490.708V133.042C88.7083 110.406 87.1302 92.6406 83.9792 79.75C80.8385 66.849 75.8125 57.0938 68.8958 50.4792C61.9792 43.8698 52.8542 39.625 41.5208 37.75C30.1979 35.8646 16.3594 34.599 0 33.9583V0Z" fill="#BCAF8B"/>
</svg>
