<svg width="668" height="625" viewBox="0 0 668 625" fill="none" xmlns="http://www.w3.org/2000/svg">
<path d="M0 0C26.4271 1.25 52.5417 2.03646 78.3333 2.35417C104.125 2.67708 131.49 3.14583 160.438 3.77083C166.089 3.77083 175.99 3.61979 190.146 3.3125C204.313 2.99479 219.729 2.52083 236.396 1.89583C253.063 1.26042 269.104 0.786459 284.521 0.479167C299.938 0.161459 311.734 0 319.917 0C355.776 0 388.646 2.83333 418.521 8.5C448.406 14.1562 474.047 23.4323 495.438 36.3333C516.823 49.224 533.339 66.3646 544.979 87.75C556.615 109.141 562.438 135.563 562.438 167.021C562.438 202.885 549.068 234.182 522.333 260.917C495.594 287.656 459.573 305.115 414.271 313.292L542.625 473.708C553.943 488.182 564.005 502.021 572.813 515.229C581.615 528.438 590.583 540.24 599.708 550.625C608.833 561 618.583 569.656 628.958 576.583C639.344 583.5 652.089 588.219 667.188 590.729V624.708C659.005 624.068 650.042 623.438 640.292 622.813C630.542 622.188 621.255 621.719 612.438 621.396C603.63 621.078 595.609 620.917 588.375 620.917C581.151 620.917 576.276 620.917 573.75 620.917C568.094 620.917 558.344 621.24 544.5 621.875C530.667 622.5 509.276 623.443 480.333 624.708L352.938 444.458C336.573 421.182 322.417 402.938 310.458 389.729C298.51 376.521 288.448 366.771 280.271 360.479C272.104 354.188 265.339 350.26 259.979 348.688C254.63 347.104 250.073 346.313 246.313 346.313C244.422 346.313 242.375 346.474 240.167 346.792C237.969 347.115 235.615 347.271 233.104 347.271V490.708C233.104 510.833 234.198 527.349 236.396 540.25C238.604 553.141 243.005 563.203 249.604 570.438C256.214 577.677 265.339 582.87 276.979 586.021C288.615 589.161 303.875 590.729 322.75 590.729V624.708C314.568 624.708 302.458 624.547 286.417 624.229C270.375 623.906 253.859 623.438 236.875 622.813C219.885 622.188 204 621.719 189.208 621.396C174.427 621.078 164.839 620.917 160.438 620.917C155.396 620.917 145.948 621.078 132.104 621.396C118.271 621.719 103.021 622.188 86.3542 622.813C69.6875 623.438 53.3333 623.906 37.2917 624.229C21.25 624.547 8.81771 624.708 0 624.708V590.729C16.9844 590.729 31.1354 589.635 42.4583 587.438C53.7917 585.229 62.9167 580.51 69.8333 573.271C76.7604 566.036 81.6354 555.974 84.4583 543.083C87.2917 530.182 88.7083 512.724 88.7083 490.708V133.042C88.7083 112.292 87.4479 95.4688 84.9375 82.5625C82.4219 69.6615 77.8594 59.75 71.25 52.8333C64.651 45.9167 55.5313 41.0417 43.8958 38.2083C32.2552 35.375 17.625 33.9583 0 33.9583V0ZM233.104 302.917H269.896C297.573 302.917 320.219 299.615 337.833 293C355.458 286.391 369.297 277.427 379.354 266.104C389.422 254.786 396.344 241.266 400.125 225.542C403.901 209.807 405.792 192.813 405.792 174.563C405.792 129.896 395.88 96.8698 376.063 75.4792C356.24 54.0938 324 43.3958 279.333 43.3958C261.083 43.3958 249.443 44.5 244.417 46.7083C239.385 48.9063 236.552 51.2656 235.917 53.7917C235.292 55.6667 234.818 59.2813 234.5 64.625C234.193 69.974 233.88 75.4792 233.563 81.1458C233.255 86.8125 233.104 92.1615 233.104 97.1875C233.104 102.219 233.104 105.052 233.104 105.688V302.917Z" fill="#BCAF8B"/>
</svg>
