<svg width="668" height="636" viewBox="0 0 668 636" fill="none" xmlns="http://www.w3.org/2000/svg">
<path d="M0 0C8.80729 0 19.3437 0.161459 31.6042 0.479167C43.8802 0.786459 57.0938 1.09896 71.25 1.41667C85.401 1.72396 99.7135 2.19792 114.188 2.83333C128.656 3.45833 142.5 3.77083 155.708 3.77083C157.594 3.77083 165.615 3.61979 179.771 3.3125C193.922 2.99479 210.276 2.52083 228.833 1.89583C247.401 1.26042 265.651 0.786459 283.583 0.479167C301.51 0.161459 315.193 0 324.625 0V33.9583C294.427 33.9583 273.667 37.7396 262.333 45.2917C251.01 52.8333 245.354 63.8438 245.354 78.3125C245.354 85.2292 247.24 95.1406 251.021 108.042C254.797 120.948 258.568 132.427 262.333 142.479L379.354 456.729L453.917 268C472.151 221.448 486.146 184.016 495.896 155.708C505.646 127.391 510.521 104.115 510.521 85.875C510.521 68.8906 504.698 56.3073 493.063 48.125C481.422 39.9479 461.135 35.224 432.208 33.9583V0C437.859 0 445.563 0.161459 455.313 0.479167C465.073 0.786459 475.458 1.26042 486.458 1.89583C497.469 2.52083 508.167 2.99479 518.542 3.3125C528.927 3.61979 537.896 3.77083 545.438 3.77083C555.505 3.77083 566.198 3.61979 577.521 3.3125C588.854 2.99479 600.021 2.67708 611.021 2.35417C622.031 2.03646 632.417 1.5625 642.167 0.9375C651.917 0.3125 660.25 0 667.167 0V33.9583C643.26 35.224 623.76 41.5208 608.667 52.8542C593.568 64.1771 581.302 81.4688 571.875 104.729L351.042 635.083H305.75L109.479 139.646C100.656 118.26 93.5729 101.281 88.2292 88.7083C82.8802 76.125 76.75 66.375 69.8333 59.4583C62.9167 52.5313 54.2604 47.3333 43.875 43.875C33.5 40.4167 18.875 37.1146 0 33.9583V0Z" fill="black"/>
</svg>
