<svg width="14" height="14" viewBox="0 0 14 14" fill="none" xmlns="http://www.w3.org/2000/svg">
<g clip-path="url(#clip0_1747_1381)">
<path d="M7.00232 3.40552C6.53057 3.40544 6.06343 3.4983 5.62757 3.6788C5.19171 3.8593 4.79569 4.12389 4.46211 4.45747C4.12853 4.79105 3.86393 5.18707 3.68344 5.62293C3.50294 6.05879 3.41008 6.52593 3.41016 6.99768C3.41008 7.46944 3.50294 7.93658 3.68344 8.37244C3.86393 8.80829 4.12853 9.20432 4.46211 9.5379C4.79569 9.87148 5.19171 10.1361 5.62757 10.3166C6.06343 10.4971 6.53057 10.5899 7.00232 10.5899C7.47407 10.5899 7.94122 10.4971 8.37708 10.3166C8.81293 10.1361 9.20896 9.87148 9.54254 9.5379C9.87612 9.20432 10.1407 8.80829 10.3212 8.37244C10.5017 7.93658 10.5946 7.46944 10.5945 6.99768C10.5946 6.52593 10.5017 6.05879 10.3212 5.62293C10.1407 5.18707 9.87612 4.79105 9.54254 4.45747C9.20896 4.12389 8.81293 3.8593 8.37708 3.6788C7.94122 3.4983 7.47407 3.40544 7.00232 3.40552ZM7.00232 9.32927C6.54134 9.32915 6.09075 9.19236 5.70751 8.93618C5.32427 8.68 5.02559 8.31594 4.84923 7.89003C4.67288 7.46412 4.62676 6.99548 4.71672 6.54337C4.80668 6.09125 5.02868 5.67596 5.35464 5.35C5.6806 5.02404 6.09589 4.80205 6.54801 4.71209C7.00012 4.62213 7.46876 4.66824 7.89467 4.84459C8.32058 5.02095 8.68464 5.31963 8.94082 5.70287C9.197 6.08611 9.33379 6.53671 9.33391 6.99768C9.33406 7.30392 9.27386 7.60717 9.15674 7.89012C9.03962 8.17307 8.86788 8.43017 8.65134 8.6467C8.43481 8.86324 8.17771 9.03498 7.89476 9.1521C7.61181 9.26922 7.30855 9.32942 7.00232 9.32927Z" fill="white"/>
<path d="M9.88647 0.0443418C8.59847 -0.0157416 5.40822 -0.0128249 4.11905 0.0443418C2.98622 0.0974251 1.98697 0.371008 1.18138 1.17659C-0.164951 2.52293 0.00713257 4.33709 0.00713257 6.99768C0.00713257 9.72068 -0.144534 11.4928 1.18138 12.8188C2.53297 14.1698 4.37338 13.993 7.00247 13.993C9.6998 13.993 10.6308 13.9948 11.5845 13.6255C12.8813 13.1221 13.8601 11.963 13.9558 9.88109C14.0165 8.59251 14.013 5.40284 13.9558 4.11368C13.8403 1.65609 12.5214 0.165675 9.88647 0.0443418ZM11.9252 11.928C11.0426 12.8106 9.81822 12.7318 6.98555 12.7318C4.06888 12.7318 2.8993 12.775 2.04588 11.9193C1.06297 10.941 1.24088 9.37009 1.24088 6.98834C1.24088 3.76543 0.910133 1.44434 4.14472 1.27868C4.88788 1.25243 5.10663 1.24368 6.97738 1.24368L7.00363 1.26118C10.1122 1.26118 12.5511 0.935675 12.6975 4.16968C12.7308 4.90759 12.7384 5.12926 12.7384 6.99709C12.7378 9.87993 12.7926 11.0565 11.9252 11.928Z" fill="white"/>
<path d="M10.7379 4.10315C11.2015 4.10315 11.5773 3.72733 11.5773 3.26373C11.5773 2.80014 11.2015 2.42432 10.7379 2.42432C10.2743 2.42432 9.89844 2.80014 9.89844 3.26373C9.89844 3.72733 10.2743 4.10315 10.7379 4.10315Z" fill="white"/>
</g>
<defs>
<clipPath id="clip0_1747_1381">
<rect width="14" height="14" fill="white"/>
</clipPath>
</defs>
</svg>
