<svg width="14" height="14" viewBox="0 0 14 14" fill="none" xmlns="http://www.w3.org/2000/svg">
<g clip-path="url(#clip0_1747_1377)">
<path d="M1.68268 0.0120239C0.752805 0.0120239 0.000150441 0.766032 0 1.6938C0 2.62247 0.752654 3.37633 1.68283 3.37633C2.61044 3.37633 3.36415 2.62247 3.36415 1.6938C3.36415 0.765882 2.61029 0.0120239 1.68268 0.0120239ZM0.231378 4.65251H3.13293V13.988H0.231378V4.65251ZM10.5196 4.42038C9.10812 4.42038 8.1617 5.19425 7.77432 5.9281H7.7355V4.65251H4.9525V13.9878H7.85149V9.36958C7.85149 8.15206 8.08332 6.97276 9.59284 6.97276C11.0807 6.97276 11.1006 8.36524 11.1006 9.44766V13.9877H14V8.86726C14 6.35385 13.4577 4.42038 10.5196 4.42038Z" fill="white"/>
</g>
<defs>
<clipPath id="clip0_1747_1377">
<rect width="14" height="14" fill="white"/>
</clipPath>
</defs>
</svg>
