<svg width="322" height="625" viewBox="0 0 322 625" fill="none" xmlns="http://www.w3.org/2000/svg">
<path d="M0 0C13.2083 0.625 27.3594 1.09896 42.4583 1.41667C57.5521 1.72396 72.4896 2.03646 87.2708 2.35417C102.063 2.67708 115.438 2.99479 127.396 3.3125C139.354 3.61979 148.792 3.77083 155.708 3.77083C158.219 3.77083 164.667 3.61979 175.042 3.3125C185.427 2.99479 198.323 2.67708 213.729 2.35417C229.146 2.03646 246.292 1.72396 265.167 1.41667C284.042 1.09896 302.917 0.625 321.792 0V33.9583C305.427 33.9583 291.589 35.224 280.271 37.75C268.948 40.2656 259.823 45.1406 252.896 52.375C245.979 59.599 240.943 69.5 237.792 82.0833C234.651 94.6667 233.083 111.344 233.083 132.104V493.521C233.083 513.661 234.177 529.865 236.375 542.125C238.583 554.391 242.984 564.141 249.583 571.375C256.193 578.615 265.318 583.495 276.958 586.021C288.594 588.536 303.542 590.104 321.792 590.729V624.708C314.875 624.708 303.234 624.547 286.875 624.229C270.51 623.906 253.365 623.438 235.438 622.813C217.505 622.188 200.99 621.719 185.896 621.396C170.797 621.078 161.047 620.917 156.646 620.917C152.24 620.917 142.49 621.078 127.396 621.396C112.297 621.719 96.0938 622.188 78.7917 622.813C61.4844 623.438 45.125 623.906 29.7083 624.229C14.3021 624.547 4.40104 624.708 0 624.708V590.729C16.9844 590.104 31.1354 588.698 42.4583 586.5C53.7917 584.292 62.9167 579.885 69.8333 573.271C76.75 566.661 81.625 556.75 84.4583 543.542C87.2917 530.333 88.7083 512.724 88.7083 490.708V134C88.7083 113.24 87.4427 96.4115 84.9167 83.5208C82.401 70.6198 77.8385 60.5521 71.2292 53.3125C64.6302 46.0781 55.5104 41.0417 43.875 38.2083C32.2344 35.375 17.6094 33.9583 0 33.9583V0Z" fill="black"/>
</svg>
